<svg xmlns="http://www.w3.org/2000/svg" viewBox="0 0 320 180" role="img" aria-label="Rack sketch">
  <defs>
    <linearGradient id="g" x1="0" y1="0" x2="1" y2="1">
      <stop offset="0%" stop-color="#0f8b8d" stop-opacity="0.25" />
      <stop offset="100%" stop-color="#f05d23" stop-opacity="0.35" />
    </linearGradient>
  </defs>
  <rect x="10" y="10" width="300" height="160" rx="10" fill="url(#g)" stroke="#2f4858" stroke-width="2" />
  <rect x="22" y="30" width="276" height="26" rx="4" fill="#fffdf7" stroke="#2f4858" stroke-width="1.5" />
  <rect x="22" y="66" width="276" height="26" rx="4" fill="#fffdf7" stroke="#2f4858" stroke-width="1.5" />
  <rect x="22" y="102" width="276" height="26" rx="4" fill="#fffdf7" stroke="#2f4858" stroke-width="1.5" />
  <rect x="22" y="138" width="276" height="18" rx="3" fill="#2f4858" opacity="0.18" />
  <circle cx="44" cy="43" r="4" fill="#f05d23" />
  <circle cx="58" cy="43" r="4" fill="#f05d23" />
  <circle cx="72" cy="43" r="4" fill="#f05d23" />
  <text x="90" y="47" font-family="system-ui, -apple-system, &quot;Segoe UI&quot;, sans-serif" font-size="12" fill="#2f4858">Router · VLANs</text>
  <circle cx="44" cy="79" r="4" fill="#0f8b8d" />
  <circle cx="58" cy="79" r="4" fill="#0f8b8d" />
  <circle cx="72" cy="79" r="4" fill="#0f8b8d" />
  <text x="90" y="83" font-family="system-ui, -apple-system, &quot;Segoe UI&quot;, sans-serif" font-size="12" fill="#2f4858">Proxmox nodes</text>
  <circle cx="44" cy="115" r="4" fill="#2f4858" />
  <circle cx="58" cy="115" r="4" fill="#2f4858" />
  <circle cx="72" cy="115" r="4" fill="#2f4858" />
  <text x="90" y="119" font-family="system-ui, -apple-system, &quot;Segoe UI&quot;, sans-serif" font-size="12" fill="#2f4858">NAS + UPS</text>
  <text x="24" y="154" font-family="system-ui, -apple-system, &quot;Segoe UI&quot;, sans-serif" font-size="10" fill="#2f4858">PDUs · fans · wiring tidy</text>
</svg>
