<svg width="539.7324951171875px" height="125.612451171875px" xmlns="http://www.w3.org/2000/svg" viewBox="-19.866247558593727 12.193774414062503 539.7324951171875 125.612451171875" style="background: rgb(253, 253, 253);" preserveAspectRatio="xMidYMid"><defs><linearGradient id="editing-outline-gradient" x1="-0.39879404629916704" x2="1.398794046299167" y1="0.061628853210922596" y2="0.9383711467890774"><stop offset="0" stop-color="#2f5f6d"></stop><stop offset="1" stop-color="#748089"></stop></linearGradient><filter id="editing-outline" x="-100%" y="-100%" width="300%" height="300%"><feMorphology in="SourceGraphic" operator="dilate" radius="2" result="outline"></feMorphology><feComposite operator="out" in="outline" in2="SourceAlpha"></feComposite></filter></defs><g filter="url(#editing-outline)"><g transform="translate(58.93000411987305, 103.41499900817871)"><path d="M35.39-24.58L35.39-24.58Q38.91-30.85 43.55-33.98L43.55-33.98L43.55-33.98Q48.19-37.12 52.96-37.12L52.96-37.12L52.96-37.12Q57.73-37.12 60.90-34.53L60.90-34.53L60.90-34.53Q64.06-31.94 64.06-28L64.06-28L64.06-28Q64.06-24.06 61.02-21.70L61.02-21.70L61.02-21.70Q57.98-19.33 53.98-19.33L53.98-19.33L53.98-19.33Q49.98-19.33 46.82-21.34L46.82-21.34L46.82-21.34Q43.65-23.36 42.62-27.14L42.62-27.14L42.62-27.14Q38.34-23.94 35.39-18.30L35.39-18.30L35.39-8.45L35.39-8.45Q35.39-2.75 41.15-2.75L41.15-2.75L47.94-2.75L47.94 0L3.84 0L3.84-2.75L8.06-2.75L8.06-2.75Q13.82-2.75 13.82-8.45L13.82-8.45L13.82-27.26L13.82-27.26Q13.82-29.57 12.13-31.26L12.13-31.26L12.13-31.26Q10.43-32.96 8.06-32.96L8.06-32.96L3.84-32.96L3.84-35.71L35.39-35.71L35.39-24.58ZM17.79-2.75L21.06-2.75L21.06-32.96L17.79-32.96L17.79-2.75ZM49.86-22.08L49.86-22.08L49.86-22.08Q47.74-24.77 47.74-28.48L47.74-28.48L47.74-28.48Q47.74-32.19 49.86-34.69L49.86-34.69L49.86-34.69Q47.62-33.73 46.21-32.03L46.21-32.03L46.21-32.03Q44.80-30.34 44.80-28.38L44.80-28.38L44.80-28.38Q44.80-26.43 46.21-24.74L46.21-24.74L46.21-24.74Q47.62-23.04 49.86-22.08ZM72.19-37.06L74.88-37.06L75.78-33.73L75.78-33.73Q86.91-37.12 101.25-37.12L101.25-37.12L101.25-37.12Q115.58-37.12 121.06-35.04L121.06-35.04L121.06-35.04Q126.53-32.96 126.53-27.07L126.53-27.07L126.53-8.45L126.53-8.45Q126.53-2.75 132.29-2.75L132.29-2.75L136.51-2.75L136.51 0L104.96 0L104.96-3.33L104.96-3.33Q95.62 1.41 86.11 1.41L86.11 1.41L86.11 1.41Q76.61 1.41 72.26-2.46L72.26-2.46L72.26-2.46Q67.90-6.34 67.90-11.87L67.90-11.87L67.90-11.87Q67.90-17.41 72.32-21.18L72.32-21.18L72.32-21.18Q76.74-24.96 85.86-24.96L85.86-24.96L85.86-24.96Q94.98-24.96 104.96-24.51L104.96-24.51L104.96-24.70L104.96-24.70Q104.96-33.60 94.72-33.60L94.72-33.60L94.72-33.60Q89.02-33.60 83.58-31.58L83.58-31.58L83.58-31.58Q78.14-29.57 74.82-27.20L74.82-27.20L72.19-27.20L72.19-37.06ZM90.75-13.34L90.75-13.34L90.75-13.34Q90.75-10.18 92.58-8.03L92.58-8.03L92.58-8.03Q94.40-5.89 97.73-5.89L97.73-5.89L97.73-5.89Q101.06-5.89 104.96-7.23L104.96-7.23L104.96-21.25L104.96-21.25Q101.31-21.44 97.95-21.44L97.95-21.44L97.95-21.44Q94.59-21.44 92.67-18.98L92.67-18.98L92.67-18.98Q90.75-16.51 90.75-13.34ZM108.93-26.18L108.93-26.18L108.93-2.75L112.19-2.75L112.19-26.18L112.19-26.18Q112.19-32.13 104.26-33.79L104.26-33.79L104.13-33.34L104.13-33.34Q108.93-31.42 108.93-26.18ZM87.68-0.51L87.68-0.51L87.68-0.90L87.68-0.90Q82.11-0.90 78.94-4.22L78.94-4.22L78.94-4.22Q75.78-7.55 75.78-11.90L75.78-11.90L75.78-11.90Q75.78-16.26 78.94-19.49L78.94-19.49L78.94-19.49Q82.11-22.72 87.74-22.72L87.74-22.72L87.74-23.10L87.74-23.10Q80-23.10 75.71-19.81L75.71-19.81L75.71-19.81Q71.42-16.51 71.42-11.90L71.42-11.90L71.42-11.90Q71.42-7.30 75.74-3.90L75.74-3.90L75.74-3.90Q80.06-0.51 87.68-0.51ZM172.93-55.42L172.93-55.42L172.93-55.42Q177.66-55.42 180.99-52.93L180.99-52.93L180.99-52.93Q184.32-50.43 184.32-46.82L184.32-46.82L184.32-46.82Q184.32-43.20 180.90-40.64L180.90-40.64L180.90-40.64Q177.47-38.08 173.06-38.08L173.06-38.08L173.06-38.08Q168.64-38.08 165.70-40L165.70-40L165.70-40Q162.75-41.92 161.54-44.35L161.54-44.35L160.45-43.78L160.45-43.78Q161.79-39.36 165.06-37.54L165.06-37.54L165.06-37.54Q168.32-35.71 173.44-35.71L173.44-35.71L183.81-35.71L183.81-32.96L179.58-32.96L179.58-32.96Q173.82-32.96 173.82-27.26L173.82-27.26L173.82-8.45L173.82-8.45Q173.82-2.75 179.58-2.75L179.58-2.75L183.81-2.75L183.81 0L142.27 0L142.27-2.75L146.50-2.75L146.50-2.75Q152.26-2.75 152.26-8.45L152.26-8.45L152.26-27.26L152.26-27.26Q152.26-29.57 150.56-31.26L150.56-31.26L150.56-31.26Q148.86-32.96 146.50-32.96L146.50-32.96L142.27-32.96L142.27-35.71L150.78-35.71L150.78-35.71Q155.33-47.36 161.09-51.58L161.09-51.58L161.09-51.58Q166.34-55.42 172.93-55.42ZM156.22-25.79L156.22-25.79L156.22-2.75L159.49-2.75L159.49-25.79L159.49-25.79Q159.49-31.74 151.55-33.41L151.55-33.41L151.42-32.96L151.42-32.96Q156.22-31.04 156.22-25.79ZM168.13-40.70L168.13-40.70L168.13-40.70Q166.08-43.26 166.08-46.88L166.08-46.88L166.08-46.88Q166.08-50.50 168.13-52.86L168.13-52.86L168.13-52.86Q165.95-51.90 164.58-50.30L164.58-50.30L164.58-50.30Q163.20-48.70 163.20-46.82L163.20-46.82L163.20-46.82Q163.20-44.93 164.54-43.30L164.54-43.30L164.54-43.30Q165.89-41.66 168.13-40.70ZM246.40-33.15L246.40-33.15L246.40-33.15Q246.72-34.37 247.30-35.46L247.30-35.46L250.05-35.46L250.05-23.68L247.36-23.68L247.36-23.68Q245.12-27.01 237.02-30.50L237.02-30.50L237.02-30.50Q228.93-33.98 220.10-33.98L220.10-33.98L220.10-33.98Q213.70-33.98 213.70-31.23L213.70-31.23L213.70-31.23Q213.70-28.16 223.62-26.75L223.62-26.75L223.62-26.75Q233.41-25.28 242.05-22.53L242.05-22.53L242.05-22.53Q246.27-21.12 249.12-18.18L249.12-18.18L249.12-18.18Q251.97-15.23 251.97-11.20L251.97-11.20L251.97-11.20Q251.97 1.41 227.33 1.41L227.33 1.41L227.33 1.41Q212.93 1.41 200.00-2.88L200.00-2.88L198.59 0.26L195.84 0.26L195.84-15.36L198.59-15.36L198.59-15.36Q200.83-9.41 208.96-5.31L208.96-5.31L208.96-5.31Q217.09-1.22 226.30-1.22L226.30-1.22L226.30-1.22Q235.52-1.22 235.52-3.71L235.52-3.71L235.52-3.71Q235.52-5.31 231.42-6.78L231.42-6.78L231.42-6.78Q227.33-8.26 221.50-9.66L221.50-9.66L221.50-9.66Q215.68-11.07 209.89-12.86L209.89-12.86L209.89-12.86Q204.10-14.66 200.00-17.73L200.00-17.73L200.00-17.73Q195.90-20.80 195.90-24.70L195.90-24.70L195.90-24.70Q195.90-30.27 200.19-32.77L200.19-32.77L200.19-32.77Q204.67-35.39 209.86-35.97L209.86-35.97L209.86-35.97Q214.72-36.54 220.26-36.54L220.26-36.54L220.26-36.54Q225.79-36.54 233.41-35.52L233.41-35.52L233.41-35.52Q241.02-34.50 246.40-33.15ZM199.55-25.02L199.55-25.02L199.55-25.02Q199.55-20.74 205.89-17.63L205.89-17.63L205.89-17.63Q212.22-14.53 226.82-10.94L226.82-10.94L226.82-10.94Q233.09-9.41 236.16-8.10L236.16-8.10L236.16-8.10Q239.23-6.78 241.28-4.29L241.28-4.29L241.79-4.35L241.79-4.35Q241.79-7.62 239.42-9.47L239.42-9.47L239.42-9.47Q238.14-10.43 236.96-11.14L236.96-11.14L236.96-11.14Q235.78-11.84 233.47-12.51L233.47-12.51L233.47-12.51Q231.17-13.18 229.73-13.57L229.73-13.57L229.73-13.57Q228.29-13.95 225.31-14.62L225.31-14.62L225.31-14.62Q222.34-15.30 219.55-15.97L219.55-15.97L219.55-15.97Q216.77-16.64 213.57-17.70L213.57-17.70L213.57-17.70Q210.37-18.75 207.42-20.29L207.42-20.29L207.42-20.29Q201.28-23.49 200.90-28.29L200.90-28.29L200.45-28.29L200.45-28.29Q199.55-26.50 199.55-25.02ZM266.18-37.06L268.86-37.06L269.76-33.73L269.76-33.73Q280.90-37.12 295.23-37.12L295.23-37.12L295.23-37.12Q309.57-37.12 315.04-35.04L315.04-35.04L315.04-35.04Q320.51-32.96 320.51-27.07L320.51-27.07L320.51-8.45L320.51-8.45Q320.51-2.75 326.27-2.75L326.27-2.75L330.50-2.75L330.50 0L298.94 0L298.94-3.33L298.94-3.33Q289.60 1.41 280.10 1.41L280.10 1.41L280.10 1.41Q270.59 1.41 266.24-2.46L266.24-2.46L266.24-2.46Q261.89-6.34 261.89-11.87L261.89-11.87L261.89-11.87Q261.89-17.41 266.30-21.18L266.30-21.18L266.30-21.18Q270.72-24.96 279.84-24.96L279.84-24.96L279.84-24.96Q288.96-24.96 298.94-24.51L298.94-24.51L298.94-24.70L298.94-24.70Q298.94-33.60 288.70-33.60L288.70-33.60L288.70-33.60Q283.01-33.60 277.57-31.58L277.57-31.58L277.57-31.58Q272.13-29.57 268.80-27.20L268.80-27.20L266.18-27.20L266.18-37.06ZM284.74-13.34L284.74-13.34L284.74-13.34Q284.74-10.18 286.56-8.03L286.56-8.03L286.56-8.03Q288.38-5.89 291.71-5.89L291.71-5.89L291.71-5.89Q295.04-5.89 298.94-7.23L298.94-7.23L298.94-21.25L298.94-21.25Q295.30-21.44 291.94-21.44L291.94-21.44L291.94-21.44Q288.58-21.44 286.66-18.98L286.66-18.98L286.66-18.98Q284.74-16.51 284.74-13.34ZM302.91-26.18L302.91-26.18L302.91-2.75L306.18-2.75L306.18-26.18L306.18-26.18Q306.18-32.13 298.24-33.79L298.24-33.79L298.11-33.34L298.11-33.34Q302.91-31.42 302.91-26.18ZM281.66-0.51L281.66-0.51L281.66-0.90L281.66-0.90Q276.10-0.90 272.93-4.22L272.93-4.22L272.93-4.22Q269.76-7.55 269.76-11.90L269.76-11.90L269.76-11.90Q269.76-16.26 272.93-19.49L272.93-19.49L272.93-19.49Q276.10-22.72 281.73-22.72L281.73-22.72L281.73-23.10L281.73-23.10Q273.98-23.10 269.70-19.81L269.70-19.81L269.70-19.81Q265.41-16.51 265.41-11.90L265.41-11.90L265.41-11.90Q265.41-7.30 269.73-3.90L269.73-3.90L269.73-3.90Q274.05-0.51 281.66-0.51ZM366.91-55.42L366.91-55.42L366.91-55.42Q371.65-55.42 374.98-52.93L374.98-52.93L374.98-52.93Q378.30-50.43 378.30-46.82L378.30-46.82L378.30-46.82Q378.30-43.20 374.88-40.64L374.88-40.64L374.88-40.64Q371.46-38.08 367.04-38.08L367.04-38.08L367.04-38.08Q362.62-38.08 359.68-40L359.68-40L359.68-40Q356.74-41.92 355.52-44.35L355.52-44.35L354.43-43.78L354.43-43.78Q355.78-39.36 359.04-37.54L359.04-37.54L359.04-37.54Q362.30-35.71 367.42-35.71L367.42-35.71L377.79-35.71L377.79-32.96L373.57-32.96L373.57-32.96Q367.81-32.96 367.81-27.26L367.81-27.26L367.81-8.45L367.81-8.45Q367.81-2.75 373.57-2.75L373.57-2.75L377.79-2.75L377.79 0L336.26 0L336.26-2.75L340.48-2.75L340.48-2.75Q346.24-2.75 346.24-8.45L346.24-8.45L346.24-27.26L346.24-27.26Q346.24-29.57 344.54-31.26L344.54-31.26L344.54-31.26Q342.85-32.96 340.48-32.96L340.48-32.96L336.26-32.96L336.26-35.71L344.77-35.71L344.77-35.71Q349.31-47.36 355.07-51.58L355.07-51.58L355.07-51.58Q360.32-55.42 366.91-55.42ZM350.21-25.79L350.21-25.79L350.21-2.75L353.47-2.75L353.47-25.79L353.47-25.79Q353.47-31.74 345.54-33.41L345.54-33.41L345.41-32.96L345.41-32.96Q350.21-31.04 350.21-25.79ZM362.11-40.70L362.11-40.70L362.11-40.70Q360.06-43.26 360.06-46.88L360.06-46.88L360.06-46.88Q360.06-50.50 362.11-52.86L362.11-52.86L362.11-52.86Q359.94-51.90 358.56-50.30L358.56-50.30L358.56-50.30Q357.18-48.70 357.18-46.82L357.18-46.82L357.18-46.82Q357.18-44.93 358.53-43.30L358.53-43.30L358.53-43.30Q359.87-41.66 362.11-40.70Z" fill="url(#editing-outline-gradient)"></path></g></g><style>text {
  font-size: 64px;
  font-family: Arial Black;
  dominant-baseline: central;
  text-anchor: middle;
}</style></svg>